<?xml version="1.0" encoding="UTF-8"?>
<svg id="Calque_1" xmlns="http://www.w3.org/2000/svg" version="1.1" viewBox="0 0 384.73 396.37">
  <!-- Generator: Adobe Illustrator 30.6.0, SVG Export Plug-In . SVG Version: 2.1.4 Build 109)  -->
  <defs>
    <style>
      .st0 {
        fill: #5fceb3;
      }
    </style>
  </defs>
  <path class="st0" d="M362.01,364.54c-28.66,32.98-77.41,41.41-115.57,20.23l-10.75-6.88-9-7.78c-6.52-5.64-9.36-12.98-8.69-21.86.74-9.92,7.62-18.18,16.29-21.66,9.6-3.85,20.3-1.92,27.74,5.31,8.96,8.72,20,13.02,32.75,12.32s24.35-8.23,30.9-18.22c7.91-12.07,8.35-25.68,3.23-38.46l-24.49-61.09c-3.41-8.49-6.94-16.11-13.04-22.89-6.63-7.37-15.63-12.42-25.66-12.03-15.37.6-30.21,13.08-36.13,27.32l-49.13,118.29c-15.67,37.74-52.51,61.77-93.68,58.96-33.7-2.31-63.87-22.5-77.91-53.18-11.42-24.93-12.1-52.38-.28-77.19L109.01,54.78c4.19-8.8,8.6-16.48,15.14-23.77,36.85-41.07,102.02-41.37,138.9-.75,5.45,6,11.54,13.82,12.41,21.31.96,8.25-2.02,16.75-8.07,22.32-10.58,9.73-26.5,9.36-36.74-.62l-6.76-8.6c-3.13-3.99-7.78-6.3-12.05-8.89-23.15-10.48-48.82,1.22-57.23,24.97l-99.86,210.11c-5.56,11.7-1.67,26.07,5.29,36.34s17.72,16.27,30.35,17.01c17.34,1.02,33.51-8.28,40.31-24.43l50.67-120.37c8.72-20.71,22.82-38.4,43.71-47.69,15.95-7.1,33.62-10.07,50.98-8.63,32.72,2.7,58.95,25.76,71.44,54.91l28.64,66.85c6.08,14.2,9.26,27.91,8.48,43.66-1.02,20.61-8.93,40.28-22.6,56.02Z"/>
</svg>