<svg width="714" height="310" viewBox="0 0 714 310" fill="none" xmlns="http://www.w3.org/2000/svg">
<path d="M429.812 284C428.345 284 427.162 283.521 426.264 282.562C425.365 281.604 424.916 280.421 424.916 279.014V245.502H421.008C419.54 245.502 418.357 245.023 417.459 244.064C416.561 243.106 416.111 241.923 416.111 240.516V239.572C416.111 238.344 416.366 237.356 416.875 236.607C417.414 235.829 418.462 235.32 420.02 235.08L424.467 234.361C423.808 231.666 423.254 229.33 422.805 227.354C422.355 225.347 422.131 223.146 422.131 220.75C422.131 217.905 422.865 215.21 424.332 212.664C425.799 210.118 427.956 208.052 430.801 206.465C433.646 204.848 437.15 204.039 441.312 204.039C443.259 204.039 445.236 204.249 447.242 204.668C449.249 205.087 451.135 205.821 452.902 206.869C453.951 207.438 454.804 208.082 455.463 208.801C456.122 209.49 456.451 210.298 456.451 211.227C456.451 212.185 456.062 213.188 455.283 214.236L453.217 217.201C452.738 217.86 452.214 218.324 451.645 218.594C451.105 218.833 450.581 218.953 450.072 218.953C449.533 218.953 449.009 218.848 448.5 218.639C447.991 218.399 447.497 218.16 447.018 217.92C446.329 217.501 445.565 217.141 444.727 216.842C443.888 216.512 442.765 216.348 441.357 216.348C439.89 216.348 438.767 216.692 437.988 217.381C437.21 218.04 436.671 218.923 436.371 220.031C436.072 221.139 435.922 222.352 435.922 223.67C435.922 224.359 436.012 225.482 436.191 227.039C436.401 228.596 436.79 230.693 437.359 233.328H447.422C448.889 233.328 450.072 233.807 450.971 234.766C451.869 235.724 452.318 236.907 452.318 238.314V240.516C452.318 241.923 451.869 243.106 450.971 244.064C450.072 245.023 448.889 245.502 447.422 245.502H438.977V279.014C438.977 280.421 438.527 281.604 437.629 282.562C436.73 283.521 435.548 284 434.08 284H429.812ZM475.363 285.123C472.099 285.123 468.999 284.479 466.064 283.191C463.13 281.874 460.734 279.942 458.877 277.396C457.05 274.821 456.137 271.676 456.137 267.963C456.137 264.848 456.766 262.228 458.023 260.102C459.281 257.975 460.868 256.268 462.785 254.98C464.702 253.663 466.813 252.734 469.119 252.195C471.455 251.626 473.746 251.342 475.992 251.342C477.819 251.342 479.885 251.581 482.191 252.061C484.497 252.54 486.773 253.483 489.02 254.891C491.296 256.268 493.272 258.335 494.949 261.09L487.223 261.764C487.552 260.745 487.807 259.577 487.986 258.26C488.166 256.912 488.256 255.684 488.256 254.576C488.256 250.893 487.283 248.212 485.336 246.535C483.389 244.858 480.604 244.02 476.98 244.02C474.734 244.02 472.863 244.274 471.365 244.783C469.868 245.262 468.535 245.771 467.367 246.311C466.589 246.67 466.005 246.939 465.615 247.119C465.256 247.269 464.822 247.344 464.312 247.344C463.294 247.344 462.501 247.044 461.932 246.445C461.363 245.846 460.868 245.158 460.449 244.379C459.97 243.451 459.626 242.612 459.416 241.863C459.206 241.085 459.102 240.501 459.102 240.111C459.102 239.333 459.446 238.554 460.135 237.775C460.824 236.997 461.722 236.278 462.83 235.619C464.807 234.451 467.217 233.583 470.062 233.014C472.908 232.445 475.648 232.16 478.283 232.16C480.11 232.16 481.892 232.31 483.629 232.609C485.396 232.909 487.103 233.418 488.75 234.137C492.583 235.784 495.518 238.27 497.555 241.594C499.591 244.918 500.609 248.856 500.609 253.408C500.609 254.965 500.49 256.613 500.25 258.35C500.01 260.087 499.681 261.973 499.262 264.01C499.951 265.837 500.579 267.783 501.148 269.85C501.717 271.916 502.182 273.848 502.541 275.645C502.9 277.441 503.08 278.879 503.08 279.957C503.08 280.855 502.855 281.754 502.406 282.652C501.957 283.551 500.924 284 499.307 284H495.488C493.751 284 492.673 283.596 492.254 282.787C491.835 281.949 491.55 281.02 491.4 280.002C491.221 278.714 491.026 277.591 490.816 276.633C490.637 275.645 490.487 274.881 490.367 274.342C490.247 273.773 490.173 273.488 490.143 273.488L494.141 272.949C493.452 274.956 492.254 276.902 490.547 278.789C488.87 280.646 486.758 282.173 484.213 283.371C481.667 284.539 478.717 285.123 475.363 285.123ZM477.16 273.713C478.957 273.713 480.529 273.398 481.877 272.77C483.255 272.111 484.333 271.332 485.111 270.434C485.92 269.505 486.339 268.622 486.369 267.783C486.309 266.675 485.815 265.717 484.887 264.908C483.988 264.1 482.865 263.471 481.518 263.021C480.17 262.572 478.792 262.348 477.385 262.348C476.097 262.348 474.884 262.557 473.746 262.977C472.638 263.396 471.74 264.025 471.051 264.863C470.392 265.702 470.062 266.765 470.062 268.053C470.062 269.82 470.721 271.212 472.039 272.23C473.357 273.219 475.064 273.713 477.16 273.713ZM518.938 284C517.47 284 516.287 283.521 515.389 282.562C514.49 281.604 514.041 280.421 514.041 279.014V253.498C514.041 250.683 513.936 248.227 513.727 246.131C513.547 244.005 513.352 242.253 513.143 240.875C512.963 239.467 512.873 238.434 512.873 237.775C512.873 236.248 513.367 235.125 514.355 234.406C515.344 233.688 516.482 233.328 517.77 233.328H520.195C521.423 233.328 522.471 233.568 523.34 234.047C524.208 234.496 524.882 235.215 525.361 236.203C525.601 236.682 525.796 237.146 525.945 237.596C526.125 238.045 526.29 238.539 526.439 239.078C528.266 237.042 530.527 235.38 533.223 234.092C535.948 232.804 538.973 232.16 542.297 232.16C546.13 232.16 549.23 232.849 551.596 234.227C553.962 235.604 555.743 237.431 556.941 239.707C558.888 237.461 561.299 235.649 564.174 234.271C567.049 232.864 570.253 232.16 573.787 232.16C577.321 232.16 580.406 232.849 583.041 234.227C585.706 235.574 587.683 237.326 588.971 239.482C590.169 241.489 590.932 243.705 591.262 246.131C591.591 248.527 591.756 251.057 591.756 253.723V279.014C591.756 280.421 591.307 281.604 590.408 282.562C589.51 283.521 588.327 284 586.859 284H582.188C580.72 284 579.537 283.521 578.639 282.562C577.74 281.604 577.291 280.421 577.291 279.014V253.318C577.291 250.114 576.782 247.808 575.764 246.4C574.745 244.993 573.098 244.289 570.822 244.289C569.055 244.289 567.348 244.828 565.701 245.906C564.084 246.954 562.751 248.437 561.703 250.354C560.655 252.27 560.131 254.501 560.131 257.047V279.014C560.131 280.421 559.682 281.604 558.783 282.562C557.885 283.521 556.702 284 555.234 284H550.562C549.095 284 547.912 283.521 547.014 282.562C546.115 281.604 545.666 280.421 545.666 279.014V253.318C545.666 250.114 545.157 247.808 544.139 246.4C543.12 244.993 541.458 244.289 539.152 244.289C537.415 244.289 535.723 244.828 534.076 245.906C532.429 246.954 531.081 248.437 530.033 250.354C528.985 252.27 528.461 254.501 528.461 257.047V279.014C528.461 280.421 528.012 281.604 527.113 282.562C526.215 283.521 525.032 284 523.564 284H518.938ZM616.014 284.764C612.57 284.764 609.799 283.701 607.703 281.574C605.637 279.418 604.604 275.674 604.604 270.344V238.314C604.604 236.907 605.053 235.724 605.951 234.766C606.85 233.807 608.033 233.328 609.5 233.328H613.902C615.37 233.328 616.553 233.807 617.451 234.766C618.35 235.724 618.799 236.907 618.799 238.314V270.793C618.799 271.332 618.904 271.661 619.113 271.781C619.353 271.901 619.637 271.901 619.967 271.781C620.446 271.632 620.94 271.452 621.449 271.242C621.958 271.003 622.452 270.883 622.932 270.883C623.501 270.883 624.055 271.048 624.594 271.377C625.163 271.676 625.627 272.245 625.986 273.084L627.289 276.094C627.648 276.902 627.828 277.606 627.828 278.205C627.828 279.283 627.349 280.257 626.391 281.125C624.773 282.622 622.992 283.596 621.045 284.045C619.098 284.524 617.421 284.764 616.014 284.764ZM612.016 226.5C609.53 226.5 607.404 225.676 605.637 224.029C603.9 222.382 603.031 220.331 603.031 217.875C603.031 215.449 603.9 213.428 605.637 211.811C607.404 210.163 609.53 209.34 612.016 209.34C614.471 209.34 616.568 210.163 618.305 211.811C620.042 213.428 620.91 215.449 620.91 217.875C620.91 220.331 620.042 222.382 618.305 224.029C616.568 225.676 614.471 226.5 612.016 226.5ZM647.279 284.764C643.805 284.764 640.99 283.701 638.834 281.574C636.708 279.418 635.645 275.704 635.645 270.434V209.295C635.645 207.887 636.094 206.704 636.992 205.746C637.891 204.788 639.074 204.309 640.541 204.309H645.078C646.546 204.309 647.729 204.788 648.627 205.746C649.525 206.704 649.975 207.887 649.975 209.295V270.523C649.975 271.003 650.049 271.362 650.199 271.602C650.379 271.841 650.663 271.961 651.053 271.961C651.771 271.961 652.43 271.796 653.029 271.467C653.658 271.107 654.257 270.928 654.826 270.928C655.934 270.928 656.818 271.706 657.477 273.264C657.806 274.012 658.165 274.806 658.555 275.645C658.944 276.453 659.139 277.247 659.139 278.025C659.139 279.163 658.495 280.271 657.207 281.35C655.71 282.607 654.077 283.491 652.311 284C650.574 284.509 648.896 284.764 647.279 284.764ZM671.043 309.605C670.174 309.605 669.366 309.426 668.617 309.066C667.898 308.707 667.195 308.288 666.506 307.809C665.577 307.12 664.799 306.401 664.17 305.652C663.541 304.904 663.227 304.02 663.227 303.002C663.227 302.193 663.481 301.415 663.99 300.666C664.499 299.917 665.158 299.079 665.967 298.15C667.524 296.413 669.096 294.512 670.684 292.445C672.301 290.379 673.798 288.298 675.176 286.201C676.553 284.135 677.661 282.233 678.5 280.496C678.021 279.148 677.392 277.501 676.613 275.555C675.865 273.608 675.026 271.512 674.098 269.266C673.169 266.99 672.226 264.699 671.268 262.393C670.309 260.057 669.366 257.826 668.438 255.699C667.539 253.543 666.715 251.641 665.967 249.994C665.787 249.575 665.428 248.781 664.889 247.613C664.38 246.415 663.826 245.113 663.227 243.705C662.658 242.298 662.163 241.01 661.744 239.842C661.325 238.644 661.115 237.82 661.115 237.371C661.115 236.203 661.579 235.245 662.508 234.496C663.436 233.717 664.634 233.328 666.102 233.328H671.492C672.99 233.328 674.098 233.732 674.816 234.541C675.535 235.32 676.179 236.368 676.748 237.686C677.557 239.542 678.335 241.594 679.084 243.84C679.833 246.056 680.492 248.092 681.061 249.949C681.66 251.776 682.079 253.079 682.318 253.857C682.917 255.654 683.411 257.227 683.801 258.574C684.19 259.922 684.49 261.045 684.699 261.943C684.939 262.812 685.104 263.471 685.193 263.92C685.313 264.489 685.433 265.088 685.553 265.717C685.673 266.316 685.882 266.615 686.182 266.615C686.481 266.615 686.676 266.406 686.766 265.986C686.885 265.567 687.065 264.968 687.305 264.189C688.143 261.644 688.967 258.949 689.775 256.104C690.584 253.229 691.378 250.219 692.156 247.074C692.935 243.93 693.699 240.665 694.447 237.281C694.777 235.874 695.346 234.87 696.154 234.271C696.963 233.643 697.921 233.328 699.029 233.328H703.971C705.378 233.328 706.501 233.717 707.34 234.496C708.208 235.245 708.643 236.278 708.643 237.596C708.643 238.464 708.448 239.737 708.059 241.414C707.699 243.061 707.205 244.918 706.576 246.984C705.977 249.051 705.318 251.132 704.6 253.229C703.911 255.325 703.252 257.257 702.623 259.023C699.838 266.63 696.379 274.477 692.246 282.562C688.143 290.648 683.202 298.33 677.422 305.607C676.913 306.236 676.029 307.06 674.771 308.078C673.514 309.096 672.271 309.605 671.043 309.605Z" fill="#00D1B2"/>
<path d="M378.532 297.006L387.921 287.076C388.409 286.561 388.799 285.942 389.091 285.221C389.383 284.499 389.513 283.743 389.513 282.953C389.513 281.338 388.961 279.964 387.889 278.83C386.817 277.696 385.517 277.112 383.99 277.112C383.146 277.112 382.301 277.387 381.489 277.902C380.677 278.417 379.669 279.311 378.5 280.513C377.168 279.173 376.096 278.28 375.349 277.799C374.601 277.318 373.789 277.077 373.009 277.077C371.483 277.077 370.183 277.661 369.111 278.795C368.039 279.929 367.487 281.304 367.487 282.918C367.487 283.709 367.617 284.465 367.909 285.186C368.201 285.908 368.591 286.526 369.078 287.042L378.467 296.971L378.532 297.006ZM401.111 287.763L381.911 308.069C381.359 308.654 380.774 309.066 380.092 309.341C379.41 309.616 378.76 309.753 378.078 309.753C377.395 309.753 376.746 309.616 376.063 309.341C375.381 309.066 374.796 308.619 374.244 308.069L350.528 282.987C350.041 282.472 349.651 281.853 349.391 281.166C349.131 280.479 349.001 279.757 349.001 279.002V258.626C349.001 257.08 349.521 255.74 350.593 254.606C351.665 253.473 352.9 252.923 354.394 252.923H373.659C374.374 252.923 375.056 253.06 375.738 253.37C376.421 253.679 377.005 254.091 377.493 254.606L401.111 279.689C401.664 280.273 402.054 280.891 402.281 281.613C402.508 282.334 402.638 283.022 402.638 283.743C402.638 284.465 402.508 285.152 402.281 285.839C402.054 286.526 401.631 287.145 401.111 287.729V287.763ZM378.078 304.118L397.278 283.812L373.562 258.661H354.361V278.967L378.078 304.118ZM361.086 270.034C362.191 270.034 363.166 269.621 363.945 268.797C364.725 267.972 365.115 266.976 365.115 265.773C365.115 264.571 364.725 263.574 363.945 262.75C363.166 261.925 362.224 261.513 361.086 261.513C359.949 261.513 359.007 261.925 358.228 262.75C357.448 263.574 357.058 264.571 357.058 265.773C357.058 266.976 357.448 267.972 358.228 268.797C359.007 269.621 359.949 270.034 361.086 270.034Z" fill="#00D1B2"/>
<path d="M324.602 291.303C322.49 291.303 320.736 290.513 319.242 288.932C317.747 287.352 317 285.496 317 283.263V211.04C317 208.807 317.747 206.951 319.242 205.371C320.736 203.79 322.49 203 324.602 203H362.613C364.725 203 366.479 203.79 367.973 205.371C369.468 206.951 370.215 208.807 370.215 211.04V247.152H362.613V211.04H324.602V283.263H343.64L351.145 291.303H324.602Z" fill="white"/>
<path d="M354 217H333V221H354V217Z" fill="white"/>
<g clip-path="url(#clip0_561_32)">
<path d="M242.764 277.72C223.545 299.769 190.853 305.405 165.263 291.245L158.054 286.645L152.019 281.443C147.646 277.673 145.742 272.765 146.191 266.829C146.687 260.196 151.301 254.674 157.115 252.347C163.553 249.773 170.728 251.064 175.718 255.898C181.726 261.727 189.13 264.602 197.68 264.134C206.23 263.666 214.009 258.632 218.401 251.953C223.706 243.883 224.001 234.784 220.567 226.24L204.144 185.397C201.858 179.721 199.49 174.626 195.4 170.094C190.954 165.166 184.918 161.79 178.192 162.051C167.885 162.452 157.933 170.796 153.963 180.316L121.017 259.401C110.508 284.633 85.8035 300.698 58.1949 298.82C35.5957 297.275 15.3637 283.777 5.94847 263.265C-1.70979 246.598 -2.16579 228.246 5.7607 211.658L73.1024 70.6241C75.9122 64.7407 78.8695 59.6061 83.2553 54.7323C107.967 27.2742 151.67 27.0737 176.402 54.2309C180.056 58.2423 184.14 63.4705 184.724 68.478C185.368 73.9937 183.369 79.6765 179.312 83.4005C172.217 89.9056 161.541 89.6582 154.674 82.9859L150.141 77.2363C148.042 74.5687 144.924 73.0243 142.06 71.2927C126.536 64.2861 109.321 72.1083 103.682 87.9868L36.7156 228.459C32.9871 236.282 35.5957 245.889 40.2631 252.755C44.9305 259.621 52.1461 263.633 60.6158 264.128C72.244 264.81 83.0876 258.592 87.6477 247.794L121.627 167.319C127.475 153.473 136.93 141.646 150.939 135.435C161.635 130.688 173.485 128.703 185.126 129.665C207.068 131.47 224.658 146.888 233.034 166.376L252.24 211.07C256.317 220.564 258.45 229.73 257.926 240.26C257.242 254.039 251.938 267.19 242.771 277.713L242.764 277.72Z" fill="#00D1B2"/>
</g>
<path d="M287.764 150C285.651 150 283.93 149.336 282.603 148.009C281.325 146.633 280.686 145.109 280.686 143.438C280.686 142.996 280.711 142.652 280.76 142.406C280.858 142.111 280.956 141.816 281.055 141.521L317.994 45.8188C319.517 41.8866 321.484 39.4289 323.892 38.4458C326.35 37.4136 329.446 36.8975 333.182 36.8975H334.436C338.368 36.8975 341.391 37.5365 343.504 38.8145C345.618 40.0924 347.289 42.2552 348.518 45.3027L388.406 141.521C388.554 141.865 388.652 142.209 388.701 142.553C388.75 142.897 388.775 143.315 388.775 143.807C388.775 145.33 388.185 146.756 387.005 148.083C385.875 149.361 384.277 150 382.213 150H371.964C369.949 150 368.352 149.582 367.172 148.747C366.041 147.862 365.206 146.731 364.665 145.355L356.26 124.047H312.169L304.354 145.355C303.813 146.879 302.879 148.034 301.552 148.82C300.274 149.607 298.824 150 297.202 150H287.764ZM319.616 103.771H348.223L334.657 66.6846C334.46 66.193 334.141 65.9473 333.698 65.9473C333.354 65.9473 333.084 66.193 332.887 66.6846L319.616 103.771ZM437.216 151.77C428.417 151.77 420.799 149.926 414.359 146.24C407.969 142.553 403.029 137.417 399.54 130.83C396.05 124.194 394.305 116.551 394.305 107.9C394.305 98.9539 396.148 91.286 399.834 84.896C403.521 78.4569 408.559 73.5169 414.949 70.0762C421.388 66.6354 428.688 64.915 436.847 64.915C445.007 64.915 451.544 66.2668 456.459 68.9702C461.375 71.6737 464.938 75.0898 467.15 79.2188C469.411 83.3477 470.542 87.5749 470.542 91.9004C470.542 96.0785 469.289 99.0277 466.782 100.748C464.324 102.468 461.473 103.329 458.229 103.329H456.533C453.535 103.329 451.225 102.567 449.603 101.043C448.03 99.4701 447.243 97.3319 447.243 94.6284C447.243 91.1385 446.26 88.6562 444.294 87.1816C442.377 85.707 439.821 84.9697 436.626 84.9697C432.497 84.9697 429.155 86.1003 426.599 88.3613C424.092 90.6224 422.249 93.4733 421.069 96.9141C419.889 100.306 419.299 103.796 419.299 107.384C419.299 111.955 419.914 116.01 421.143 119.549C422.421 123.088 424.46 125.866 427.262 127.881C430.113 129.896 433.873 130.904 438.543 130.904C442.082 130.904 445.105 130.339 447.612 129.208C450.119 128.028 452.453 126.898 454.616 125.816C455.648 125.276 456.656 124.858 457.639 124.563C458.622 124.219 459.556 124.047 460.441 124.047C461.817 124.047 463.095 124.342 464.275 124.932C465.504 125.521 466.511 126.455 467.298 127.733L468.846 130.24C469.534 131.322 469.952 132.231 470.1 132.968C470.296 133.706 470.395 134.345 470.395 134.885C470.395 137.589 469.239 139.997 466.929 142.111C464.619 144.224 461.694 145.994 458.155 147.419C454.616 148.845 450.954 149.926 447.169 150.664C443.434 151.401 440.116 151.77 437.216 151.77ZM496.495 150C494.087 150 492.145 149.214 490.67 147.641C489.196 146.068 488.458 144.126 488.458 141.816V99.937C488.458 95.3166 488.286 91.286 487.942 87.8452C487.647 84.3553 487.328 81.4798 486.984 79.2188C486.689 76.9085 486.542 75.2127 486.542 74.1313C486.542 71.6245 487.353 69.7812 488.975 68.6016C490.597 67.4219 492.465 66.832 494.578 66.832H498.56C500.575 66.832 502.295 67.2253 503.721 68.0117C505.146 68.749 506.252 69.9287 507.039 71.5508C507.432 72.3372 507.751 73.0991 507.997 73.8364C508.292 74.5737 508.562 75.3848 508.808 76.2695C511.806 72.9271 515.518 70.1991 519.941 68.0854C524.414 65.9718 529.379 64.915 534.835 64.915C541.127 64.915 546.214 66.0456 550.097 68.3066C553.98 70.5677 556.905 73.5661 558.871 77.3018C562.066 73.6152 566.023 70.6414 570.742 68.3804C575.46 66.0701 580.72 64.915 586.52 64.915C592.32 64.915 597.383 66.0456 601.708 68.3066C606.083 70.5186 609.327 73.394 611.441 76.9331C613.407 80.2264 614.66 83.8638 615.201 87.8452C615.742 91.7775 616.012 95.931 616.012 100.306V141.816C616.012 144.126 615.275 146.068 613.8 147.641C612.326 149.214 610.384 150 607.976 150H600.308C597.899 150 595.958 149.214 594.483 147.641C593.008 146.068 592.271 144.126 592.271 141.816V99.6421C592.271 94.3826 591.435 90.5978 589.764 88.2876C588.093 85.9774 585.389 84.8223 581.654 84.8223C578.754 84.8223 575.952 85.707 573.249 87.4766C570.594 89.1969 568.407 91.63 566.687 94.7759C564.966 97.9217 564.106 101.584 564.106 105.762V141.816C564.106 144.126 563.369 146.068 561.894 147.641C560.419 149.214 558.478 150 556.069 150H548.401C545.993 150 544.051 149.214 542.577 147.641C541.102 146.068 540.365 144.126 540.365 141.816V99.6421C540.365 94.3826 539.529 90.5978 537.858 88.2876C536.187 85.9774 533.459 84.8223 529.674 84.8223C526.823 84.8223 524.046 85.707 521.342 87.4766C518.639 89.1969 516.427 91.63 514.707 94.7759C512.986 97.9217 512.126 101.584 512.126 105.762V141.816C512.126 144.126 511.389 146.068 509.914 147.641C508.439 149.214 506.498 150 504.089 150H496.495ZM674.923 151.843C666.812 151.843 659.513 150.197 653.025 146.903C646.537 143.561 641.4 138.768 637.615 132.526C633.83 126.234 631.938 118.689 631.938 109.891C631.938 99.4209 633.732 90.8682 637.32 84.2324C640.958 77.5967 645.996 72.7305 652.435 69.6338C658.923 66.488 666.395 64.915 674.849 64.915C681.141 64.915 686.744 65.9718 691.66 68.0854C696.624 70.1991 700.507 73.2957 703.309 77.3755C706.16 81.4552 707.585 86.4198 707.585 92.269C707.585 98.3149 705.89 103.23 702.498 107.015C699.106 110.751 694.707 113.479 689.3 115.199C683.943 116.92 678.216 117.78 672.121 117.78C669.27 117.78 666.444 117.608 663.642 117.264C660.889 116.87 658.358 116.428 656.048 115.937C653.787 115.396 651.968 114.929 650.592 114.536L654.647 110.259C654.5 111.341 654.401 112.078 654.352 112.471C654.303 112.815 654.278 113.43 654.278 114.314C654.278 119.82 656.195 124.194 660.029 127.438C663.912 130.683 669.295 132.305 676.176 132.305C679.715 132.305 682.91 131.838 685.761 130.904C688.612 129.97 691.094 128.889 693.208 127.66C694.633 126.824 695.838 126.21 696.821 125.816C697.853 125.374 698.836 125.153 699.77 125.153C700.95 125.153 701.884 125.423 702.572 125.964C703.309 126.505 703.924 127.266 704.415 128.25L706.922 133.337C707.266 133.976 707.487 134.517 707.585 134.959C707.684 135.352 707.733 135.893 707.733 136.581C707.733 137.908 706.824 139.432 705.005 141.152C703.186 142.873 700.729 144.544 697.632 146.166C694.535 147.788 691.021 149.14 687.088 150.221C683.205 151.303 679.15 151.843 674.923 151.843ZM668.656 99.7896C673.817 99.7896 677.798 99.1997 680.6 98.02C683.451 96.7912 684.876 94.8005 684.876 92.0479C684.876 89.4427 683.967 87.5749 682.148 86.4443C680.33 85.2646 677.553 84.6748 673.817 84.6748C670.819 84.6748 668.041 85.0926 665.485 85.9282C662.929 86.7147 660.767 88.0664 658.997 89.9834C657.277 91.8512 656.072 94.4318 655.384 97.7251C656.318 98.02 657.473 98.3395 658.85 98.6836C660.226 98.9785 661.75 99.2489 663.421 99.4946C665.092 99.6912 666.837 99.7896 668.656 99.7896Z" fill="white"/>
<defs>
<clipPath id="clip0_561_32">
<rect width="258" height="265" fill="white" transform="translate(0 34)"/>
</clipPath>
</defs>
</svg>
